<?xml version="1.0" standalone="no"?>
<!DOCTYPE svg PUBLIC "-//W3C//DTD SVG 20010904//EN"
 "http://www.w3.org/TR/2001/REC-SVG-20010904/DTD/svg10.dtd">
<svg version="1.0" xmlns="http://www.w3.org/2000/svg"
 width="850.000000pt" height="850.000000pt" viewBox="0 0 850.000000 850.000000"
 preserveAspectRatio="xMidYMid meet">
<metadata>
Created by potrace 1.14, written by Peter Selinger 2001-2017
</metadata>
<g transform="translate(0.000000,850.000000) scale(0.100000,-0.100000)"
fill="#000000" stroke="none">
<path d="M2173 6137 l-2173 -2173 0 -789 c0 -527 3 -786 10 -779 6 6 33 8 66
4 30 -3 57 -3 59 0 2 3 29 3 60 0 30 -3 57 -4 60 -2 8 8 105 7 105 -1 0 -4 7
-4 17 1 9 6 29 6 45 2 15 -5 30 -5 32 -1 3 4 30 4 61 1 31 -3 58 -3 61 1 2 4
20 3 39 -1 19 -4 37 -5 39 -1 3 4 30 4 61 1 31 -3 58 -3 60 0 2 3 29 3 60 0
30 -3 57 -4 60 -2 8 8 105 7 105 -1 0 -4 7 -4 17 1 9 6 29 6 45 2 15 -5 30 -5
32 -1 3 4 30 4 61 1 31 -3 58 -3 60 0 2 3 29 3 60 0 31 -3 58 -3 60 0 2 3 29
3 60 0 31 -3 58 -3 60 0 2 3 29 3 60 0 31 -3 58 -3 60 0 2 3 29 3 60 0 31 -3
58 -3 60 0 2 3 29 3 60 0 30 -3 57 -4 59 -2 3 2 94 3 204 2 l200 -1 -1 555 0
554 -544 1 c-300 0 -547 2 -550 4 -4 5 3674 3687 3683 3687 2 0 335 -330 739
-733 404 -404 736 -729 738 -723 2 6 3 585 3 1286 l-1 1275 -970 2 -970 2
-2172 -2172z"/>
<path d="M7395 6360 c0 -1072 4 -1950 8 -1950 5 0 5 -5 1 -11 -8 -14 -8 -385
1 -399 3 -5 2 -10 -3 -10 -10 0 -9 -56 1 -66 3 -3 1 -19 -3 -35 -5 -17 -5 -40
-1 -52 5 -12 5 -32 0 -45 -5 -12 -5 -22 1 -22 5 0 5 -12 0 -29 -4 -15 -4 -34
0 -42 5 -7 6 -17 3 -22 -6 -10 -10 -106 -4 -112 6 -7 7 -64 1 -60 -3 2 -5 -36
-5 -83 1 -89 -12 -214 -31 -305 -3 -16 -7 -38 -9 -50 -8 -61 -82 -317 -96
-332 -5 -5 -9 -15 -9 -23 0 -8 -7 -30 -16 -50 -37 -82 -119 -249 -134 -272
-10 -14 -43 -65 -76 -115 -32 -49 -85 -124 -118 -165 -66 -82 -236 -255 -305
-310 -24 -19 -49 -40 -55 -46 -19 -18 -198 -140 -246 -168 -25 -14 -92 -49
-150 -77 -58 -28 -113 -55 -124 -61 -10 -5 -26 -11 -35 -14 -9 -2 -67 -21
-128 -43 -62 -21 -113 -38 -113 -36 0 2 -26 -4 -57 -12 -77 -20 -107 -26 -188
-38 -23 -3 -52 -8 -65 -10 -14 -3 -88 -8 -165 -11 -77 -2 -145 -7 -152 -9 -7
-2 -15 0 -18 6 -4 5 -11 7 -16 3 -9 -5 -120 -8 -144 -4 -5 2 -14 2 -19 1 -23
-5 -319 -2 -323 3 -3 3 -14 1 -25 -5 -13 -7 -23 -7 -32 0 -7 6 -15 8 -19 5 -4
-5 -372 -8 -387 -3 -3 1 -9 0 -15 -1 -12 -2 -127 -2 -140 0 -5 2 -14 1 -20 0
-24 -4 -156 -2 -162 3 -3 4 -14 2 -25 -4 -13 -7 -23 -7 -32 0 -7 6 -15 8 -19
5 -7 -7 -236 -8 -244 -1 -3 4 -14 2 -25 -4 -13 -7 -23 -7 -32 0 -7 6 -15 8
-18 5 -6 -5 -199 -8 -223 -4 -5 2 -14 1 -20 0 -12 -2 -127 -2 -140 0 -5 2 -14
2 -19 1 -23 -5 -319 -2 -323 3 -3 3 -14 1 -25 -5 -13 -7 -23 -7 -32 0 -7 6
-15 8 -19 5 -4 -5 -372 -8 -387 -3 -3 1 -9 0 -15 -1 -12 -2 -127 -2 -140 0 -5
2 -14 1 -20 0 -24 -4 -156 -2 -162 3 -3 4 -14 2 -25 -4 -13 -7 -23 -7 -32 0
-7 6 -15 8 -19 5 -7 -7 -236 -8 -244 -1 -3 4 -14 2 -25 -4 -13 -7 -23 -7 -32
0 -7 6 -15 8 -18 5 -6 -5 -199 -8 -223 -4 -5 2 -14 1 -20 0 -12 -2 -127 -2
-140 0 -5 2 -14 2 -19 1 -23 -5 -319 -2 -323 3 -3 3 -14 1 -25 -5 -13 -7 -23
-7 -32 0 -7 6 -15 8 -19 5 -4 -5 -372 -8 -387 -3 -3 1 -9 0 -15 -1 -12 -2
-127 -2 -140 0 -5 2 -14 1 -20 0 -5 -1 -36 -2 -68 -1 l-57 2 0 -551 0 -551
2723 4 c1497 2 2740 6 2762 10 22 3 65 9 95 12 30 3 62 8 70 10 8 2 35 7 60
10 47 6 85 12 85 15 0 2 24 6 80 15 22 3 103 24 180 45 77 22 149 42 160 45
11 2 29 9 40 14 11 5 58 24 105 41 217 80 473 214 685 359 89 60 231 167 255
191 3 3 38 34 79 70 93 81 186 174 271 270 36 41 75 84 88 97 12 13 22 28 22
33 0 4 4 10 8 12 12 4 138 177 193 263 87 136 109 172 109 179 0 4 16 32 35
62 19 30 35 57 36 62 0 4 15 39 33 77 46 95 80 173 91 205 1 3 5 14 10 25 22
54 47 122 50 135 2 8 11 38 20 65 10 28 18 55 20 60 1 6 8 30 15 55 8 25 14
47 15 50 0 3 5 23 10 45 4 22 9 45 11 50 8 29 34 162 39 200 2 11 6 38 9 60 4
22 9 60 12 85 3 25 8 61 11 80 4 19 8 1179 10 2578 l4 2542 -554 0 -553 0 1
-1950z"/>
<path d="M4061 4894 l-734 -735 1 -852 c0 -469 1 -864 1 -878 1 -25 5 -27 47
-31 25 -2 48 0 50 4 2 3 18 3 34 -2 16 -5 32 -5 34 -1 3 4 30 4 61 1 31 -3 58
-3 60 0 2 3 29 3 60 0 31 -3 58 -3 60 0 2 3 29 3 60 0 31 -3 58 -3 60 0 2 3
29 3 60 0 31 -3 58 -3 60 0 2 3 29 3 60 0 30 -3 57 -4 60 -2 8 8 105 7 105 -1
0 -4 7 -4 17 1 9 6 29 6 45 2 15 -5 30 -5 32 -1 3 4 30 4 61 1 31 -3 58 -3 61
1 2 4 20 3 39 -1 19 -4 37 -5 39 -1 3 4 30 4 61 1 31 -3 58 -3 60 0 2 3 29 3
60 0 30 -3 57 -4 60 -2 8 8 105 7 105 -1 0 -4 7 -4 17 1 9 6 29 6 45 2 15 -5
30 -5 32 -1 3 4 30 4 61 1 31 -3 58 -3 61 1 2 4 19 3 38 -1 19 -4 37 -6 39 -3
3 2 49 6 103 8 55 2 110 6 124 9 14 4 39 9 55 12 44 9 60 12 60 14 0 1 7 3 15
5 28 6 145 52 190 76 89 45 183 112 256 182 72 68 184 205 184 225 0 6 4 12 8
14 17 6 101 197 117 264 2 10 9 37 14 59 5 22 13 54 17 70 3 17 8 208 9 426
l3 395 -68 70 c-336 340 -1408 1404 -1416 1403 -5 0 -339 -331 -743 -735z
m854 -495 c147 -39 273 -154 321 -296 17 -49 24 -182 12 -239 -9 -49 -31 -104
-41 -104 -4 0 -6 -4 -3 -8 8 -14 -81 -119 -132 -157 -65 -47 -158 -80 -247
-87 -5 0 -35 2 -66 5 -186 20 -343 157 -388 339 -58 239 74 467 314 543 50 16
177 18 230 4z"/>
</g>
</svg>
